<?xml version="1.0" standalone="no"?>
<!DOCTYPE svg PUBLIC "-//W3C//DTD SVG 1.1//EN" "http://www.w3.org/Graphics/SVG/1.1/DTD/svg11.dtd">
<svg width="100%" height="100%" viewBox="0 0 8334 8334" version="1.1" xmlns="http://www.w3.org/2000/svg" xmlns:xlink="http://www.w3.org/1999/xlink" xml:space="preserve" style="fill-rule:evenodd;clip-rule:evenodd;stroke-linecap:round;stroke-linejoin:round;stroke-miterlimit:1.41421;">
    <g transform="matrix(4.16667,0,0,4.16667,0,0)">
        <rect x="0" y="0" width="2000" height="2000" style="fill:white;fill-rule:nonzero;"/>
        <g>
            <clipPath id="_clip1">
                <path d="M276.511,846.646C276.511,447.198 600.328,123.381 999.776,123.381C1399.22,123.381 1723.04,447.198 1723.04,846.646C1723.04,1246.09 1399.22,1569.91 999.776,1569.91C600.328,1569.91 276.511,1246.09 276.511,846.646Z"/>
            </clipPath>
            <g clip-path="url(#_clip1)">
                <path d="M129.38,865.231C129.38,381.673 521.38,-10.328 1004.94,-10.328C1488.5,-10.328 1880.5,381.673 1880.5,865.231C1880.5,1348.79 1488.5,1740.79 1004.94,1740.79C521.38,1740.79 129.38,1348.79 129.38,865.231Z" style="fill:rgb(203,208,234);fill-rule:nonzero;"/>
                <path d="M709.92,1129.13L661.213,1349.96L676.287,1760.29L572.317,1775.33L506.927,1377.5C503.866,1364.25 504.044,1350.45 507.446,1337.28L573.765,1080.55L709.92,1129.13Z" style="fill:rgb(246,175,149);fill-rule:nonzero;"/>
                <path d="M1030.51,813.269C1030.51,813.269 1169.45,833.425 1200.85,844.921C1237.5,858.343 1263.31,1102.53 1252.47,1144.35C1243.58,1178.64 1240.08,1412.8 1240.08,1412.8L1252.63,1691.5C1252.63,1691.5 1091.33,1796.54 725.339,1708.26C720.923,1707.2 756.741,1461.15 754.778,1451.16C752.177,1437.92 733.439,1286.91 685.932,1153.17C666.429,1098.26 594.903,930.482 673.882,892.259C751.506,854.693 925.911,812.076 925.911,812.076L1030.51,813.269Z" style="fill:rgb(79,73,79);fill-rule:nonzero;"/>
                <path d="M845.043,833.402C845.043,833.402 868.065,819.131 877.454,805.414C895.731,778.713 895.97,668.518 895.97,668.518L1042.71,673.478C1042.71,673.478 1054.08,816.851 1063.22,819.076C1092.91,826.304 1071.16,861.667 1006.5,874.831C942.566,887.848 845.043,833.402 845.043,833.402Z" style="fill:rgb(246,175,149);fill-rule:nonzero;"/>
                <path d="M896.045,660.848C896.045,660.848 896.386,676.73 895.692,684.263C954.599,823.728 1031.45,784.086 1052.38,771.84C1049.09,743.769 1042.58,674.791 1042.58,674.791L896.045,660.848Z" style="fill:rgb(240,138,110);fill-rule:nonzero;"/>
                <path d="M665.147,898.51C573.238,934.845 511.288,1215.17 511.288,1215.17C511.288,1215.17 590.232,1270.79 703.333,1278.67L718.82,1198.13L665.147,898.51Z" style="fill:rgb(79,73,79);fill-rule:nonzero;"/>
                <path d="M1317,1160.87C1369.14,1181.52 1347.46,962.626 1347.46,962.626L1298.93,957.463L1291.71,1087.56L1317,1160.87Z" style="fill:rgb(79,73,79);fill-rule:nonzero;"/>
            </g>
        </g>
        <g>
            <clipPath id="_clip2">
                <path d="M276.511,846.646C276.511,447.198 600.328,123.381 999.776,123.381C1399.22,123.381 1723.04,447.198 1723.04,846.646C1723.04,1246.09 1399.22,1569.91 999.776,1569.91C600.328,1569.91 276.511,1246.09 276.511,846.646Z"/>
            </clipPath>
            <g clip-path="url(#_clip2)">
                <clipPath id="_clip3">
                    <path d="M1089.41,401.527C1067.49,382.475 1039.72,370.714 1012.44,365.306C965.346,355.971 919.554,365.682 886.34,401.895C859.048,431.65 851.345,469.235 851.613,502.883C851.987,549.634 867.751,588.788 867.751,588.788C874.379,606.487 881.007,624.187 887.635,641.887C908.928,705.031 960.306,746.066 1019.64,745.414C1054.88,745.027 1077.76,727.314 1090.11,708.244C1125.61,656.685 1136.77,561.923 1132.53,497.291C1130.08,459.958 1118.27,426.619 1089.41,401.527Z"/>
                </clipPath>
                <g clip-path="url(#_clip3)">
                    <path d="M1089.41,401.516C1067.49,382.473 1039.72,370.706 1012.43,365.301C1024.1,405.719 1023.32,450.306 1024.06,491.948C1060.19,494.189 1096.42,495.078 1132.53,497.284C1130.08,459.949 1118.27,426.609 1089.41,401.516Z" style="fill:rgb(246,175,149);"/>
                    <path d="M1012.43,365.301C965.339,355.97 919.551,365.671 886.339,401.885C859.04,431.645 851.337,469.233 851.614,502.873C907.922,490.978 966.749,489.708 1024.06,491.948C1023.32,450.306 1024.1,405.719 1012.43,365.301Z" style="fill:rgb(246,175,149);"/>
                    <path d="M1132.53,497.284C1096.42,495.078 1060.19,494.189 1024.06,491.948C1025.53,575.233 1042.27,664.28 1019.64,745.404C1054.87,745.024 1077.76,727.309 1090.1,708.232C1125.6,656.681 1136.76,561.918 1132.53,497.284Z" style="fill:rgb(246,175,149);"/>
                    <path d="M1024.06,491.948C966.749,489.708 907.922,490.978 851.614,502.873C851.984,549.631 867.747,588.778 867.747,588.778C907.969,622.753 967.545,647.362 1031.39,647.87C1031.56,595.823 1024.96,542.817 1024.06,491.948Z" style="fill:rgb(246,175,149);"/>
                    <path d="M1031.39,647.87C967.545,647.362 907.969,622.753 867.747,588.778C874.376,606.482 881.004,624.185 887.633,641.877C908.927,705.021 960.304,746.063 1019.64,745.404C1028.45,713.832 1031.3,681.047 1031.39,647.87Z" style="fill:rgb(246,175,149);"/>
                </g>
            </g>
        </g>
        <g>
            <clipPath id="_clip4">
                <path d="M276.511,846.646C276.511,447.198 600.328,123.381 999.776,123.381C1399.22,123.381 1723.04,447.198 1723.04,846.646C1723.04,1246.09 1399.22,1569.91 999.776,1569.91C600.328,1569.91 276.511,1246.09 276.511,846.646Z"/>
            </clipPath>
            <g clip-path="url(#_clip4)">
                <path d="M880.883,583.164C880.883,583.164 918.585,541.281 923.767,455.413C923.767,455.413 961.75,443.784 986.693,447.112C1011.64,450.441 1040.5,472.681 1090.15,471.896C1139.79,471.11 1162.62,434.772 1162.62,434.772C1162.62,434.772 1152.69,435.095 1146.88,434.456C1146.88,434.456 1162.08,418.233 1180.16,388.672C1180.16,388.672 1167.81,390.729 1120.35,382.337C1120.35,382.337 1134.89,371.103 1142.7,356.776C1142.7,356.776 1104.02,363.828 1055.71,354.637C1007.4,345.445 944.118,334.256 913.312,354.297C882.506,374.338 880.986,378.527 880.986,378.527C880.986,378.527 892.262,343.392 906.105,336.319C906.105,336.319 872.603,349.825 869.544,383.038C869.544,383.038 850.577,385.31 840.735,388.113C830.892,390.916 863.997,390.668 863.997,390.668C863.997,390.668 803.944,478.714 868.503,605.756L880.883,583.164Z" style="fill:rgb(79,73,79);fill-rule:nonzero;"/>
                <path d="M1038.53,558.287C1036.02,577.488 1039.65,597.444 1048.76,614.532C1049.81,616.498 1050.95,618.5 1051.16,620.717C1051.56,624.862 1048.51,628.693 1044.85,630.667C1041.18,632.641 1036.95,633.197 1032.87,634.003C1030.53,634.464 1027.27,634.091 1026.11,636.174C1024.07,639.818 1023.99,642.141 1026.15,645.292" style="fill:none;stroke-width:3.26px;stroke:rgb(79,73,79);"/>
                <path d="M1128.52,560.472C1128.52,560.472 1148.19,544.763 1157.44,555.94C1166.69,567.116 1160.2,607.694 1124.07,607.54C1124.07,607.54 1119.23,587.62 1128.52,560.472Z" style="fill:rgb(246,173,146);fill-rule:nonzero;"/>
                <path d="M880.986,378.527C880.986,378.527 904.087,340.457 941.924,327.269C979.762,314.081 1052.75,327.654 1081.13,317.962C1081.13,317.962 1059.66,344.17 1014.58,355.202C969.499,366.233 934.154,382.529 934.154,382.529L880.986,378.527Z" style="fill:rgb(79,73,79);fill-rule:nonzero;"/>
                <path d="M1115.39,464.333C1115.39,464.333 1129.48,526.019 1132.31,558.015C1132.31,558.015 1143.72,469.258 1131.77,445.199C1119.83,421.139 1115.39,464.333 1115.39,464.333Z" style="fill:rgb(79,73,79);fill-rule:nonzero;"/>
                <path d="M933.334,534.51C930.444,542.502 945.621,538.953 954.87,535.731C964.12,532.508 985.499,536.956 993.351,535.501C1001.2,534.046 1002.45,517.32 988.892,515.7C975.331,514.08 941.01,513.287 933.334,534.51Z" style="fill:rgb(79,73,79);fill-rule:nonzero;"/>
                <path d="M1116.4,531.346C1119.88,539.103 1104.48,536.684 1095.02,534.152C1085.56,531.62 1064.56,537.633 1056.62,536.762C1048.69,535.89 1046.21,519.302 1059.61,516.686C1073.01,514.07 1107.18,510.747 1116.4,531.346Z" style="fill:rgb(79,73,79);fill-rule:nonzero;"/>
                <path d="M979.461,563.777C978.681,552.399 973.964,543.455 968.924,543.801C963.885,544.146 960.431,553.65 961.211,565.028C961.991,576.406 966.708,585.349 971.748,585.004C976.787,584.659 980.241,575.155 979.461,563.777Z" style="fill:rgb(79,73,79);fill-rule:nonzero;"/>
                <path d="M1088.63,563.82C1087.85,552.442 1083.41,543.479 1078.72,543.801C1074.02,544.122 1070.85,553.607 1071.63,564.985C1072.41,576.363 1076.85,585.326 1081.54,585.004C1086.23,584.682 1089.41,575.198 1088.63,563.82Z" style="fill:rgb(79,73,79);fill-rule:nonzero;"/>
                <path d="M895.743,585.247C895.743,585.247 897.033,542.398 852.965,558.162C835.467,564.422 834.816,612.963 883.679,620.144C883.679,620.144 900.734,616.176 895.743,585.247Z" style="fill:rgb(246,175,149);fill-rule:nonzero;"/>
                <path d="M1059.39,660.62C1059.39,660.62 1023.26,678.172 979.375,667.331" style="fill:none;stroke-width:3.26px;stroke:rgb(79,73,79);"/>
                <path d="M1041.84,677.14C1041.84,677.14 1034.61,688.497 1015,689.013" style="fill:none;stroke-width:3.26px;stroke:rgb(79,73,79);"/>
                <path d="M1248.61,770.31C1248.61,770.31 1216.52,760.318 1171.41,692.668L1213.4,609.22C1213.4,609.22 1291.53,708.931 1304.15,734.318L1248.61,770.31Z" style="fill:rgb(220,149,127);fill-rule:nonzero;"/>
                <path d="M1213.4,609.22C1213.4,609.22 1124.55,555.682 1116.08,561.448C1107.61,567.214 1175.41,614.13 1175.41,614.13C1175.41,614.13 1099.5,578.74 1094.32,587.489C1089.14,596.239 1157.53,629.19 1157.53,629.19C1157.53,629.19 1090.68,605.256 1086.07,613.552C1081.46,621.849 1154.71,653.29 1154.71,653.29C1154.71,653.29 1096.66,656.372 1095.76,664.064C1094.86,671.755 1153.61,676.031 1153.61,676.031L1176.85,699.541L1213.4,609.22Z" style="fill:rgb(220,149,127);fill-rule:nonzero;"/>
                <path d="M1289.12,716.186C1289.12,716.186 1273.95,662.564 1264.94,639.679C1255.92,616.793 1240.06,579.074 1231.51,578.853C1222.96,578.632 1243.3,654.689 1243.3,654.689L1289.12,716.186Z" style="fill:rgb(220,149,127);fill-rule:nonzero;"/>
                <path d="M1294.3,721.86C1294.3,721.86 1526.63,975.146 1553.55,1051.58C1581.07,1129.72 1541.13,1157.72 1497.7,1155.76C1458.93,1154.01 1335.82,993.362 1243.12,759.532L1294.3,721.86Z" style="fill:rgb(220,149,127);fill-rule:nonzero;"/>
                <path d="M1548.15,1138.41C1548.15,1138.41 1499.24,1205.26 1190.52,1080.33C1190.52,1080.33 1157.75,959.612 1228.72,872.798L1369.44,982.251L1548.15,1138.41Z" style="fill:rgb(220,149,127);fill-rule:nonzero;"/>
                <path d="M1196.2,844.921C1234.92,841.823 1321.65,943.008 1321.65,943.008C1321.65,943.008 1313.91,1003.93 1317,1160.87L1158.51,1107.18L1196.2,844.921Z" style="fill:rgb(79,73,79);fill-rule:nonzero;"/>
                <path d="M1335.59,957.463C1335.59,957.463 1379.47,1052.97 1435.22,1079.3" style="fill:none;stroke-width:3.1px;stroke:rgb(203,115,94);"/>
                <path d="M1316.23,1126.02C1316.23,1126.02 1272.48,1031.87 1321.26,945.396L1329.39,1060.2L1325.52,1114.4L1316.23,1126.02Z" style="fill:rgb(220,149,127);fill-rule:nonzero;"/>
            </g>
        </g>
        <path d="M1617.45,318.427C1617.45,249.999 1561.98,194.527 1493.55,194.527C1425.12,194.527 1369.65,249.999 1369.65,318.427C1369.65,386.855 1425.12,442.327 1493.55,442.327C1561.98,442.327 1617.45,386.855 1617.45,318.427Z" style="fill:rgb(239,131,103);fill-rule:nonzero;"/>
        <path d="M1460.15,384.225L1431.96,360.002L1533.14,242.297L1561.33,266.52L1460.15,384.225Z" style="fill:white;fill-rule:nonzero;"/>
        <path d="M1533.14,384.225L1561.33,360.002L1460.15,242.297L1431.96,266.52L1533.14,384.225Z" style="fill:white;fill-rule:nonzero;"/>
        <path d="M534.378,1664.5C534.378,1670.4 535.382,1675.05 537.378,1678.44C539.375,1681.83 542.617,1683.52 547.106,1683.52C549.72,1683.52 552.007,1682.99 553.967,1681.94C555.915,1680.87 557.524,1679.32 558.771,1677.29L558.771,1648.53C557.524,1646.41 555.927,1644.75 554.003,1643.58C552.067,1642.39 549.805,1641.8 547.227,1641.8C542.775,1641.8 539.532,1643.77 537.475,1647.72C535.406,1651.67 534.378,1656.83 534.378,1663.19L534.378,1664.5ZM516.228,1663.19C516.228,1652.55 518.526,1643.95 523.125,1637.43C527.723,1630.9 534.196,1627.64 542.557,1627.64C545.921,1627.64 548.958,1628.37 551.656,1629.82C554.366,1631.27 556.726,1633.36 558.771,1636.05L558.771,1599.08L577.041,1599.08L577.041,1696.37L561.517,1696.37L559.956,1688.07C557.839,1691.19 555.322,1693.58 552.406,1695.22C549.502,1696.85 546.175,1697.68 542.424,1697.68C534.148,1697.68 527.723,1694.64 523.125,1688.58C518.526,1682.5 516.228,1674.48 516.228,1664.5L516.228,1663.19Z" style="fill:rgb(79,73,79);fill-rule:nonzero;"/>
        <path d="M606.479,1663.31C606.479,1669.47 607.568,1674.41 609.722,1678.12C611.888,1681.85 615.385,1683.71 620.2,1683.71C624.907,1683.71 628.343,1681.84 630.533,1678.1C632.711,1674.35 633.8,1669.42 633.8,1663.31L633.8,1662.01C633.8,1656.02 632.699,1651.13 630.497,1647.34C628.295,1643.57 624.822,1641.67 620.079,1641.67C615.385,1641.67 611.936,1643.58 609.758,1647.38C607.58,1651.18 606.479,1656.05 606.479,1662.01L606.479,1663.31ZM588.33,1662.01C588.33,1651.94 591.137,1643.7 596.751,1637.28C602.365,1630.85 610.145,1627.64 620.079,1627.64C630.061,1627.64 637.878,1630.84 643.528,1637.24C649.191,1643.65 652.01,1651.9 652.01,1662.01L652.01,1663.31C652.01,1673.47 649.191,1681.73 643.565,1688.11C637.926,1694.49 630.146,1697.68 620.2,1697.68C610.23,1697.68 602.414,1694.49 596.787,1688.11C591.149,1681.73 588.33,1673.47 588.33,1663.31L588.33,1662.01Z" style="fill:rgb(79,73,79);fill-rule:nonzero;"/>
        <path d="M711.697,1628.89L712.508,1638.56C714.746,1635.1 717.517,1632.42 720.796,1630.51C724.087,1628.6 727.766,1627.64 731.843,1627.64C738.655,1627.64 743.979,1629.83 747.803,1634.21C751.626,1638.61 753.538,1645.54 753.538,1655.01L753.538,1696.37L735.267,1696.37L735.267,1655.09C735.267,1650.26 734.432,1646.83 732.739,1644.83C731.057,1642.81 728.528,1641.8 725.164,1641.8C722.466,1641.8 720.082,1642.31 718.025,1643.33C715.969,1644.34 714.275,1645.75 712.944,1647.54L712.944,1696.37L694.734,1696.37L694.734,1628.89L711.697,1628.89Z" style="fill:rgb(79,73,79);fill-rule:nonzero;"/>
        <path d="M782.48,1663.31C782.48,1669.47 783.569,1674.41 785.723,1678.12C787.889,1681.85 791.385,1683.71 796.201,1683.71C800.908,1683.71 804.344,1681.84 806.534,1678.1C808.712,1674.35 809.801,1669.42 809.801,1663.31L809.801,1662.01C809.801,1656.02 808.7,1651.13 806.498,1647.34C804.296,1643.57 800.823,1641.67 796.08,1641.67C791.385,1641.67 787.937,1643.58 785.759,1647.38C783.581,1651.18 782.48,1656.05 782.48,1662.01L782.48,1663.31ZM764.331,1662.01C764.331,1651.94 767.138,1643.7 772.752,1637.28C778.366,1630.85 786.146,1627.64 796.08,1627.64C806.062,1627.64 813.878,1630.84 819.529,1637.24C825.192,1643.65 828.011,1651.9 828.011,1662.01L828.011,1663.31C828.011,1673.47 825.192,1681.73 819.565,1688.11C813.927,1694.49 806.147,1697.68 796.201,1697.68C786.231,1697.68 778.415,1694.49 772.788,1688.11C767.15,1681.73 764.331,1673.47 764.331,1663.31L764.331,1662.01Z" style="fill:rgb(79,73,79);fill-rule:nonzero;"/>
        <path d="M861.067,1612.36L861.067,1628.89L872.489,1628.89L872.489,1641.67L861.067,1641.67L861.067,1676.04C861.067,1678.66 861.623,1680.53 862.725,1681.64C863.826,1682.77 865.278,1683.34 867.056,1683.34C868.012,1683.34 868.847,1683.28 869.561,1683.18C870.263,1683.07 871.073,1682.9 871.993,1682.65L873.481,1695.81C871.654,1696.43 869.875,1696.9 868.157,1697.22C866.427,1697.52 864.539,1697.68 862.507,1697.68C856.227,1697.68 851.399,1695.96 848.011,1692.5C844.611,1689.05 842.917,1683.58 842.917,1676.1L842.917,1641.67L833.068,1641.67L833.068,1628.89L842.917,1628.89L842.917,1612.36L861.067,1612.36Z" style="fill:rgb(79,73,79);fill-rule:nonzero;"/>
        <path d="M937.343,1612.36L937.343,1628.89L948.765,1628.89L948.765,1641.67L937.343,1641.67L937.343,1676.04C937.343,1678.66 937.899,1680.53 939,1681.64C940.102,1682.77 941.553,1683.34 943.332,1683.34C944.288,1683.34 945.123,1683.28 945.837,1683.18C946.539,1683.07 947.349,1682.9 948.269,1682.65L949.757,1695.81C947.93,1696.43 946.151,1696.9 944.433,1697.22C942.703,1697.52 940.815,1697.68 938.783,1697.68C932.503,1697.68 927.675,1695.96 924.287,1692.5C920.887,1689.05 919.193,1683.58 919.193,1676.1L919.193,1641.67L909.344,1641.67L909.344,1628.89L919.193,1628.89L919.193,1612.36L937.343,1612.36Z" style="fill:rgb(79,73,79);fill-rule:nonzero;"/>
        <path d="M975.336,1663.31C975.336,1669.47 976.424,1674.41 978.578,1678.12C980.744,1681.85 984.241,1683.71 989.056,1683.71C993.763,1683.71 997.2,1681.84 999.39,1678.1C1001.57,1674.35 1002.66,1669.42 1002.66,1663.31L1002.66,1662.01C1002.66,1656.02 1001.56,1651.13 999.353,1647.34C997.151,1643.57 993.679,1641.67 988.935,1641.67C984.241,1641.67 980.792,1643.58 978.615,1647.38C976.437,1651.18 975.336,1656.05 975.336,1662.01L975.336,1663.31ZM957.186,1662.01C957.186,1651.94 959.993,1643.7 965.607,1637.28C971.222,1630.85 979.002,1627.64 988.935,1627.64C998.918,1627.64 1006.73,1630.84 1012.38,1637.24C1018.05,1643.65 1020.87,1651.9 1020.87,1662.01L1020.87,1663.31C1020.87,1673.47 1018.05,1681.73 1012.42,1688.11C1006.78,1694.49 999.002,1697.68 989.056,1697.68C979.086,1697.68 971.27,1694.49 965.644,1688.11C960.005,1681.73 957.186,1673.47 957.186,1663.31L957.186,1662.01Z" style="fill:rgb(79,73,79);fill-rule:nonzero;"/>
        <path d="M1073.44,1686.39C1071.36,1690.01 1068.72,1692.79 1065.51,1694.75C1062.32,1696.7 1058.59,1697.68 1054.36,1697.68C1047.24,1697.68 1041.68,1695.27 1037.67,1690.44C1033.66,1685.63 1031.65,1678.14 1031.65,1668L1031.65,1628.89L1049.8,1628.89L1049.8,1668.12C1049.8,1674.02 1050.6,1678.06 1052.2,1680.25C1053.8,1682.43 1056.28,1683.52 1059.66,1683.52C1062.56,1683.52 1065.05,1683.05 1067.14,1682.12C1069.22,1681.19 1070.92,1679.81 1072.25,1677.97L1072.25,1628.89L1090.46,1628.89L1090.46,1696.37L1075.38,1696.37L1073.44,1686.39Z" style="fill:rgb(79,73,79);fill-rule:nonzero;"/>
        <path d="M1132.38,1683.71C1135.53,1683.71 1138.05,1682.76 1139.93,1680.87C1141.8,1678.98 1142.73,1676.45 1142.73,1673.3L1159.32,1673.3L1159.44,1673.67C1159.61,1680.48 1157.08,1686.19 1151.84,1690.79C1146.61,1695.38 1140.11,1697.68 1132.38,1697.68C1122.39,1697.68 1114.69,1694.49 1109.24,1688.11C1103.8,1681.73 1101.07,1673.56 1101.07,1663.63L1101.07,1661.75C1101.07,1651.86 1103.78,1643.7 1109.21,1637.28C1114.64,1630.85 1122.32,1627.64 1132.26,1627.64C1140.48,1627.64 1147.11,1630 1152.15,1634.75C1157.18,1639.49 1159.61,1645.72 1159.44,1653.46L1159.32,1653.84L1142.73,1653.84C1142.73,1650.34 1141.8,1647.44 1139.96,1645.13C1138.11,1642.83 1135.53,1641.67 1132.26,1641.67C1127.56,1641.67 1124.22,1643.56 1122.25,1647.32C1120.26,1651.08 1119.28,1655.9 1119.28,1661.75L1119.28,1663.63C1119.28,1669.62 1120.26,1674.46 1122.25,1678.16C1124.22,1681.86 1127.6,1683.71 1132.38,1683.71Z" style="fill:rgb(79,73,79);fill-rule:nonzero;"/>
        <path d="M1187.83,1637.43C1189.96,1634.36 1192.55,1631.95 1195.63,1630.22C1198.71,1628.5 1202.12,1627.64 1205.86,1627.64C1212.89,1627.64 1218.4,1629.98 1222.42,1634.65C1226.43,1639.33 1228.43,1646.56 1228.43,1656.33L1228.43,1696.37L1210.23,1696.37L1210.23,1656.2C1210.23,1650.96 1209.38,1647.26 1207.7,1645.07C1206.01,1642.89 1203.49,1641.8 1200.12,1641.8C1197.34,1641.8 1194.91,1642.25 1192.85,1643.13C1190.79,1644.03 1189.12,1645.31 1187.83,1646.97L1187.83,1696.37L1169.62,1696.37L1169.62,1599.08L1187.83,1599.08L1187.83,1637.43Z" style="fill:rgb(79,73,79);fill-rule:nonzero;"/>
        <path d="M1298.29,1668.06L1299.04,1671.8L1299.4,1671.8L1312.31,1628.89L1331.9,1628.89L1304.52,1706.47C1302.61,1711.3 1300,1715.37 1296.73,1718.67C1293.43,1721.97 1288.51,1723.63 1281.94,1723.63C1280.4,1723.63 1278.97,1723.5 1277.67,1723.26C1276.36,1723 1274.76,1722.65 1272.9,1722.19L1275.02,1708.91C1275.56,1708.99 1276.14,1709.07 1276.76,1709.16C1277.39,1709.24 1277.95,1709.28 1278.44,1709.28C1281.44,1709.28 1283.75,1708.54 1285.38,1707.07C1287,1705.59 1288.24,1703.75 1289.11,1701.55L1291.23,1696.31L1267.29,1628.89L1286.86,1628.89L1298.29,1668.06Z" style="fill:rgb(79,73,79);fill-rule:nonzero;"/>
        <path d="M1353.61,1663.31C1353.61,1669.47 1354.69,1674.41 1356.85,1678.12C1359.01,1681.85 1362.51,1683.71 1367.33,1683.71C1372.03,1683.71 1375.47,1681.84 1377.66,1678.1C1379.84,1674.35 1380.93,1669.42 1380.93,1663.31L1380.93,1662.01C1380.93,1656.02 1379.83,1651.13 1377.62,1647.34C1375.42,1643.57 1371.95,1641.67 1367.21,1641.67C1362.51,1641.67 1359.06,1643.58 1356.88,1647.38C1354.71,1651.18 1353.61,1656.05 1353.61,1662.01L1353.61,1663.31ZM1335.46,1662.01C1335.46,1651.94 1338.26,1643.7 1343.88,1637.28C1349.49,1630.85 1357.27,1627.64 1367.21,1627.64C1377.19,1627.64 1385,1630.84 1390.65,1637.24C1396.32,1643.65 1399.14,1651.9 1399.14,1662.01L1399.14,1663.31C1399.14,1673.47 1396.32,1681.73 1390.69,1688.11C1385.05,1694.49 1377.27,1697.68 1367.33,1697.68C1357.36,1697.68 1349.54,1694.49 1343.91,1688.11C1338.28,1681.73 1335.46,1673.47 1335.46,1663.31L1335.46,1662.01Z" style="fill:rgb(79,73,79);fill-rule:nonzero;"/>
        <path d="M1451.72,1686.39C1449.64,1690.01 1447,1692.79 1443.8,1694.75C1440.6,1696.7 1436.87,1697.68 1432.64,1697.68C1425.53,1697.68 1419.96,1695.27 1415.95,1690.44C1411.94,1685.63 1409.93,1678.14 1409.93,1668L1409.93,1628.89L1428.08,1628.89L1428.08,1668.12C1428.08,1674.02 1428.88,1678.06 1430.49,1680.25C1432.08,1682.43 1434.56,1683.52 1437.94,1683.52C1440.84,1683.52 1443.34,1683.05 1445.42,1682.12C1447.5,1681.19 1449.2,1679.81 1450.54,1677.97L1450.54,1628.89L1468.75,1628.89L1468.75,1696.37L1453.66,1696.37L1451.72,1686.39Z" style="fill:rgb(79,73,79);fill-rule:nonzero;"/>
        <path d="M1517.94,1644.54L1511.28,1644.35C1508.56,1644.35 1506.35,1644.91 1504.6,1646.04C1502.85,1647.16 1501.52,1648.75 1500.6,1650.78L1500.6,1696.37L1482.45,1696.37L1482.45,1628.89L1499.36,1628.89L1500.17,1638.86C1501.75,1635.33 1503.8,1632.58 1506.31,1630.6C1508.83,1628.62 1511.73,1627.64 1515.01,1627.64C1515.93,1627.64 1516.77,1627.72 1517.54,1627.86C1518.31,1628.01 1519.09,1628.18 1519.88,1628.38L1517.94,1644.54Z" style="fill:rgb(79,73,79);fill-rule:nonzero;"/>
        <path d="M432.898,1849.65L432.898,1794.95L422.856,1794.95L422.856,1782.17L432.898,1782.17L432.898,1774.68C432.898,1767.12 435.076,1761.28 439.444,1757.18C443.812,1753.09 449.947,1751.04 457.848,1751.04C459.384,1751.04 460.957,1751.16 462.554,1751.39C464.152,1751.62 465.918,1751.93 467.83,1752.35L466.269,1765.88C465.265,1765.73 464.297,1765.57 463.365,1765.45C462.433,1765.33 461.345,1765.27 460.098,1765.27C457.134,1765.27 454.908,1766.08 453.383,1767.7C451.871,1769.32 451.108,1771.64 451.108,1774.68L451.108,1782.17L464.079,1782.17L464.079,1794.95L451.108,1794.95L451.108,1849.65L432.898,1849.65Z" style="fill:rgb(79,73,79);fill-rule:nonzero;"/>
        <path d="M495.828,1837.49C498.986,1837.49 501.818,1836.7 504.31,1835.12C506.803,1833.53 508.509,1831.7 509.416,1829.62L509.416,1820.09L499.192,1820.09C495.32,1820.09 492.404,1821.04 490.432,1822.96C488.46,1824.87 487.468,1827.22 487.468,1830C487.468,1832.28 488.206,1834.11 489.682,1835.46C491.158,1836.81 493.203,1837.49 495.828,1837.49ZM512.477,1849.65C511.812,1848.11 511.243,1846.49 510.759,1844.78C510.287,1843.08 509.936,1841.34 509.731,1839.54C507.867,1842.82 505.387,1845.56 502.314,1847.71C499.228,1849.88 495.574,1850.95 491.339,1850.95C484.261,1850.95 478.816,1849.14 474.993,1845.5C471.169,1841.87 469.258,1836.91 469.258,1830.63C469.258,1824.01 471.799,1818.89 476.892,1815.25C481.986,1811.62 489.416,1809.79 499.192,1809.79L509.416,1809.79L509.416,1804.43C509.416,1801.19 508.569,1798.67 506.863,1796.88C505.157,1795.09 502.628,1794.2 499.253,1794.2C496.3,1794.2 494.026,1794.92 492.428,1796.35C490.819,1797.79 490.021,1799.75 490.021,1802.24L472.5,1802.24L472.379,1801.88C472.077,1796.18 474.569,1791.26 479.833,1787.12C485.084,1782.99 491.956,1780.92 500.438,1780.92C508.545,1780.92 515.103,1782.95 520.112,1787.03C525.134,1791.11 527.638,1796.94 527.638,1804.55L527.638,1832.43C527.638,1835.6 527.868,1838.56 528.352,1841.35C528.824,1844.14 529.586,1846.9 530.627,1849.65L512.477,1849.65Z" style="fill:rgb(79,73,79);fill-rule:nonzero;"/>
        <path d="M569.491,1836.99C572.649,1836.99 575.165,1836.04 577.041,1834.15C578.916,1832.26 579.848,1829.73 579.848,1826.57L596.437,1826.57L596.558,1826.95C596.727,1833.76 594.198,1839.47 588.959,1844.07C583.72,1848.66 577.222,1850.95 569.491,1850.95C559.509,1850.95 551.801,1847.77 546.356,1841.38C540.911,1835.01 538.189,1826.84 538.189,1816.91L538.189,1815.03C538.189,1805.13 540.899,1796.98 546.32,1790.55C551.753,1784.13 559.436,1780.92 569.37,1780.92C577.597,1780.92 584.228,1783.28 589.261,1788.02C594.295,1792.77 596.727,1799 596.558,1806.74L596.437,1807.12L579.848,1807.12C579.848,1803.62 578.916,1800.72 577.077,1798.41C575.226,1796.11 572.649,1794.95 569.37,1794.95C564.675,1794.95 561.336,1796.83 559.363,1800.6C557.379,1804.36 556.399,1809.17 556.399,1815.03L556.399,1816.91C556.399,1822.9 557.379,1827.74 559.363,1831.44C561.336,1835.14 564.711,1836.99 569.491,1836.99Z" style="fill:rgb(79,73,79);fill-rule:nonzero;"/>
        <path d="M635.228,1794.95C631.562,1794.95 628.755,1796.2 626.77,1798.72C624.798,1801.24 623.6,1804.58 623.189,1808.74L623.31,1809.04L645.513,1809.04L645.513,1807.67C645.513,1803.72 644.702,1800.62 643.081,1798.35C641.459,1796.08 638.846,1794.95 635.228,1794.95ZM636.414,1850.95C626.347,1850.95 618.494,1847.87 612.831,1841.7C607.181,1835.52 604.35,1827.57 604.35,1817.84L604.35,1815.35C604.35,1805.24 607.096,1796.97 612.59,1790.52C618.071,1784.08 625.621,1780.87 635.228,1780.92C644.29,1780.92 651.248,1783.69 656.088,1789.25C660.927,1794.79 663.359,1802.27 663.359,1811.67L663.359,1821.08L623.128,1821.08L622.935,1821.46C623.225,1826.08 624.629,1829.82 627.145,1832.68C629.662,1835.55 633.401,1836.99 638.35,1836.99C642.415,1836.99 645.888,1836.57 648.731,1835.75C651.574,1834.91 654.515,1833.64 657.552,1831.93L662.488,1843.16C659.778,1845.36 656.124,1847.22 651.502,1848.72C646.892,1850.2 641.858,1850.95 636.414,1850.95Z" style="fill:rgb(79,73,79);fill-rule:nonzero;"/>
        <path d="M764.452,1824.58L764.827,1824.58L772.994,1782.17L790.708,1782.17L773.55,1849.65L758.341,1849.65L745.806,1810.72L745.431,1810.72L732.896,1849.65L717.735,1849.65L700.578,1782.17L718.292,1782.17L726.592,1824.38L726.967,1824.38L739.563,1782.17L751.723,1782.17L764.452,1824.58Z" style="fill:rgb(79,73,79);fill-rule:nonzero;"/>
        <path d="M818.912,1849.65L800.702,1849.65L800.702,1782.17L818.912,1782.17L818.912,1849.65ZM818.912,1766.02L800.702,1766.02L800.702,1752.35L818.912,1752.35L818.912,1766.02Z" style="fill:rgb(79,73,79);fill-rule:nonzero;"/>
        <path d="M855.695,1765.64L855.695,1782.17L867.117,1782.17L867.117,1794.95L855.695,1794.95L855.695,1829.32C855.695,1831.93 856.251,1833.81 857.352,1834.92C858.453,1836.05 859.905,1836.62 861.684,1836.62C862.64,1836.62 863.475,1836.56 864.189,1836.46C864.89,1836.35 865.701,1836.18 866.621,1835.93L868.109,1849.09C866.282,1849.71 864.503,1850.18 862.785,1850.49C861.055,1850.8 859.167,1850.95 857.135,1850.95C850.855,1850.95 846.027,1849.24 842.639,1845.78C839.239,1842.33 837.545,1836.86 837.545,1829.38L837.545,1794.95L827.696,1794.95L827.696,1782.17L837.545,1782.17L837.545,1765.64L855.695,1765.64Z" style="fill:rgb(79,73,79);fill-rule:nonzero;"/>
        <path d="M896.107,1790.71C898.237,1787.64 900.826,1785.23 903.912,1783.5C906.985,1781.78 910.397,1780.92 914.136,1780.92C921.166,1780.92 926.683,1783.26 930.7,1787.93C934.705,1792.61 936.714,1799.83 936.714,1809.61L936.714,1849.65L918.504,1849.65L918.504,1809.48C918.504,1804.24 917.657,1800.54 915.975,1798.35C914.293,1796.17 911.764,1795.08 908.401,1795.08C905.618,1795.08 903.186,1795.53 901.129,1796.41C899.072,1797.31 897.402,1798.59 896.107,1800.25L896.107,1849.65L877.897,1849.65L877.897,1752.35L896.107,1752.35L896.107,1790.71Z" style="fill:rgb(79,73,79);fill-rule:nonzero;"/>
        <path d="M1006.58,1821.33L1007.33,1825.07L1007.69,1825.07L1020.6,1782.17L1040.19,1782.17L1012.81,1859.75C1010.9,1864.58 1008.29,1868.64 1005.02,1871.95C1001.72,1875.25 996.8,1876.91 990.23,1876.91C988.693,1876.91 987.266,1876.78 985.959,1876.53C984.652,1876.28 983.055,1875.93 981.192,1875.47L983.309,1862.18C983.854,1862.27 984.434,1862.35 985.052,1862.44C985.681,1862.52 986.237,1862.56 986.733,1862.56C989.734,1862.56 992.045,1861.82 993.666,1860.34C995.288,1858.87 996.534,1857.03 997.405,1854.83L999.523,1849.59L975.578,1782.17L995.155,1782.17L1006.58,1821.33Z" style="fill:rgb(79,73,79);fill-rule:nonzero;"/>
        <path d="M1061.9,1816.59C1061.9,1822.75 1062.98,1827.69 1065.14,1831.4C1067.3,1835.13 1070.8,1836.99 1075.62,1836.99C1080.32,1836.99 1083.76,1835.12 1085.95,1831.38C1088.13,1827.63 1089.22,1822.7 1089.22,1816.59L1089.22,1815.29C1089.22,1809.3 1088.12,1804.41 1085.91,1800.62C1083.71,1796.85 1080.24,1794.95 1075.5,1794.95C1070.8,1794.95 1067.35,1796.86 1065.18,1800.66C1063,1804.46 1061.9,1809.33 1061.9,1815.29L1061.9,1816.59ZM1043.75,1815.29C1043.75,1805.22 1046.55,1796.98 1052.17,1790.55C1057.78,1784.13 1065.56,1780.92 1075.5,1780.92C1085.48,1780.92 1093.29,1784.12 1098.95,1790.52C1104.61,1796.93 1107.43,1805.18 1107.43,1815.29L1107.43,1816.59C1107.43,1826.74 1104.61,1835.01 1098.98,1841.38C1093.34,1847.77 1085.56,1850.95 1075.62,1850.95C1065.65,1850.95 1057.83,1847.77 1052.2,1841.38C1046.57,1835.01 1043.75,1826.74 1043.75,1816.59L1043.75,1815.29Z" style="fill:rgb(79,73,79);fill-rule:nonzero;"/>
        <path d="M1160,1839.67C1157.92,1843.28 1155.28,1846.07 1152.07,1848.03C1148.88,1849.97 1145.15,1850.95 1140.92,1850.95C1133.8,1850.95 1128.24,1848.55 1124.23,1843.72C1120.22,1838.9 1118.21,1831.41 1118.21,1821.27L1118.21,1782.17L1136.36,1782.17L1136.36,1821.4C1136.36,1827.3 1137.16,1831.34 1138.76,1833.53C1140.36,1835.71 1142.84,1836.8 1146.22,1836.8C1149.12,1836.8 1151.61,1836.33 1153.7,1835.39C1155.78,1834.46 1157.48,1833.08 1158.81,1831.24L1158.81,1782.17L1177.02,1782.17L1177.02,1849.65L1161.94,1849.65L1160,1839.67Z" style="fill:rgb(79,73,79);fill-rule:nonzero;"/>
        <path d="M1226.23,1797.81L1219.57,1797.63C1216.86,1797.63 1214.64,1798.19 1212.89,1799.31C1211.14,1800.44 1209.81,1802.02 1208.89,1804.06L1208.89,1849.65L1190.74,1849.65L1190.74,1782.17L1207.65,1782.17L1208.46,1792.14C1210.04,1788.61 1212.09,1785.86 1214.61,1783.87C1217.12,1781.9 1220.03,1780.92 1223.3,1780.92C1224.22,1780.92 1225.06,1780.99 1225.83,1781.14C1226.6,1781.29 1227.38,1781.45 1228.17,1781.66L1226.23,1797.81Z" style="fill:rgb(79,73,79);fill-rule:nonzero;"/>
        <path d="M1285.3,1790.71C1287.43,1787.64 1290.02,1785.23 1293.11,1783.5C1296.18,1781.78 1299.59,1780.92 1303.33,1780.92C1310.36,1780.92 1315.88,1783.26 1319.9,1787.93C1323.9,1792.61 1325.91,1799.83 1325.91,1809.61L1325.91,1849.65L1307.7,1849.65L1307.7,1809.48C1307.7,1804.24 1306.85,1800.54 1305.17,1798.35C1303.49,1796.17 1300.96,1795.08 1297.6,1795.08C1294.81,1795.08 1292.38,1795.53 1290.32,1796.41C1288.27,1797.31 1286.6,1798.59 1285.3,1800.25L1285.3,1849.65L1267.09,1849.65L1267.09,1752.35L1285.3,1752.35L1285.3,1790.71Z" style="fill:rgb(79,73,79);fill-rule:nonzero;"/>
        <path d="M1362.76,1837.49C1365.92,1837.49 1368.75,1836.7 1371.25,1835.12C1373.74,1833.53 1375.45,1831.7 1376.35,1829.62L1376.35,1820.09L1366.13,1820.09C1362.26,1820.09 1359.34,1821.04 1357.37,1822.96C1355.4,1824.87 1354.4,1827.22 1354.4,1830C1354.4,1832.28 1355.14,1834.11 1356.62,1835.46C1358.09,1836.81 1360.14,1837.49 1362.76,1837.49ZM1379.41,1849.65C1378.75,1848.11 1378.18,1846.49 1377.7,1844.78C1377.22,1843.08 1376.87,1841.34 1376.67,1839.54C1374.8,1842.82 1372.32,1845.56 1369.25,1847.71C1366.16,1849.88 1362.51,1850.95 1358.28,1850.95C1351.2,1850.95 1345.75,1849.14 1341.93,1845.5C1338.11,1841.87 1336.19,1836.91 1336.19,1830.63C1336.19,1824.01 1338.73,1818.89 1343.83,1815.25C1348.92,1811.62 1356.35,1809.79 1366.13,1809.79L1376.35,1809.79L1376.35,1804.43C1376.35,1801.19 1375.51,1798.67 1373.8,1796.88C1372.09,1795.09 1369.56,1794.2 1366.19,1794.2C1363.24,1794.2 1360.96,1794.92 1359.36,1796.35C1357.76,1797.79 1356.96,1799.75 1356.96,1802.24L1339.44,1802.24L1339.32,1801.88C1339.01,1796.18 1341.51,1791.26 1346.77,1787.12C1352.02,1782.99 1358.89,1780.92 1367.37,1780.92C1375.48,1780.92 1382.04,1782.95 1387.05,1787.03C1392.07,1791.11 1394.57,1796.94 1394.57,1804.55L1394.57,1832.43C1394.57,1835.6 1394.8,1838.56 1395.29,1841.35C1395.76,1844.14 1396.52,1846.9 1397.56,1849.65L1379.41,1849.65Z" style="fill:rgb(79,73,79);fill-rule:nonzero;"/>
        <path d="M1424.9,1782.17L1425.71,1791.84C1427.95,1788.38 1430.72,1785.7 1434,1783.79C1437.29,1781.88 1440.96,1780.92 1445.04,1780.92C1451.85,1780.92 1457.18,1783.11 1461,1787.49C1464.82,1791.88 1466.74,1798.82 1466.74,1808.29L1466.74,1849.65L1448.47,1849.65L1448.47,1808.36C1448.47,1803.54 1447.63,1800.11 1445.94,1798.1C1444.26,1796.08 1441.73,1795.08 1438.36,1795.08C1435.66,1795.08 1433.28,1795.59 1431.22,1796.6C1429.17,1797.62 1427.47,1799.02 1426.14,1800.81L1426.14,1849.65L1407.93,1849.65L1407.93,1782.17L1424.9,1782.17Z" style="fill:rgb(79,73,79);fill-rule:nonzero;"/>
        <path d="M1495.67,1817.78C1495.67,1823.68 1496.67,1828.33 1498.67,1831.72C1500.66,1835.1 1503.91,1836.8 1508.4,1836.8C1511.01,1836.8 1513.3,1836.27 1515.26,1835.21C1517.2,1834.15 1518.81,1832.6 1520.06,1830.57L1520.06,1801.81C1518.81,1799.69 1517.22,1798.03 1515.29,1796.86C1513.36,1795.67 1511.09,1795.08 1508.52,1795.08C1504.06,1795.08 1500.82,1797.05 1498.76,1801C1496.7,1804.95 1495.67,1810.11 1495.67,1816.47L1495.67,1817.78ZM1477.52,1816.47C1477.52,1805.82 1479.82,1797.23 1484.41,1790.71C1489.01,1784.18 1495.49,1780.92 1503.85,1780.92C1507.21,1780.92 1510.25,1781.65 1512.94,1783.1C1515.66,1784.55 1518.01,1786.63 1520.06,1789.33L1520.06,1752.35L1538.33,1752.35L1538.33,1849.65L1522.81,1849.65L1521.25,1841.35C1519.13,1844.47 1516.61,1846.85 1513.7,1848.5C1510.79,1850.13 1507.46,1850.95 1503.71,1850.95C1495.44,1850.95 1489.01,1847.92 1484.41,1841.86C1479.82,1835.78 1477.52,1827.76 1477.52,1817.78L1477.52,1816.47Z" style="fill:rgb(79,73,79);fill-rule:nonzero;"/>
        <path d="M1588.92,1830.94C1588.92,1828.95 1587.95,1827.23 1586.01,1825.79C1584.08,1824.36 1580.5,1823.1 1575.26,1822.01C1567.36,1820.44 1561.36,1818.04 1557.27,1814.85C1553.16,1811.64 1551.12,1807.3 1551.12,1801.81C1551.12,1796.03 1553.58,1791.11 1558.48,1787.03C1563.39,1782.95 1569.91,1780.92 1578.07,1780.92C1586.58,1780.92 1593.42,1782.95 1598.55,1787.03C1603.69,1791.11 1606.15,1796.18 1605.94,1802.24L1605.82,1802.62L1588.23,1802.62C1588.23,1799.92 1587.36,1797.72 1585.62,1796.01C1583.86,1794.3 1581.34,1793.46 1578.07,1793.46C1575.15,1793.46 1572.85,1794.18 1571.14,1795.64C1569.44,1797.09 1568.58,1798.88 1568.58,1801C1568.58,1803.08 1569.46,1804.77 1571.23,1806.08C1573,1807.4 1576.59,1808.57 1582,1809.61C1590.26,1811.27 1596.43,1813.71 1600.49,1816.93C1604.54,1820.16 1606.57,1824.6 1606.57,1830.25C1606.57,1836.33 1603.97,1841.29 1598.77,1845.16C1593.58,1849.02 1586.72,1850.95 1578.19,1850.95C1569.21,1850.95 1562.11,1848.68 1556.89,1844.13C1551.68,1839.58 1549.18,1834.39 1549.44,1828.57L1549.56,1828.2L1566.22,1828.2C1566.34,1831.81 1567.53,1834.43 1569.76,1836.05C1572.02,1837.67 1574.94,1838.48 1578.56,1838.48C1581.92,1838.48 1584.5,1837.8 1586.27,1836.46C1588.04,1835.1 1588.92,1833.27 1588.92,1830.94Z" style="fill:rgb(79,73,79);fill-rule:nonzero;"/>
    </g>
</svg>
