<?xml version="1.0" standalone="no"?>
<!DOCTYPE svg PUBLIC "-//W3C//DTD SVG 1.1//EN" "http://www.w3.org/Graphics/SVG/1.1/DTD/svg11.dtd">
<svg width="100%" height="100%" viewBox="0 0 2138 2138" version="1.1" xmlns="http://www.w3.org/2000/svg" xmlns:xlink="http://www.w3.org/1999/xlink" xml:space="preserve" style="fill-rule:evenodd;clip-rule:evenodd;stroke-linejoin:round;stroke-miterlimit:1.41421;">
    <g transform="matrix(4.16667,0,0,4.16667,0,0)">
        <path d="M512.77,256.612C512.77,398.209 397.98,513 256.385,513C114.79,513 0,398.209 0,256.612C0,115.017 114.79,0.229 256.385,0.229C397.98,0.229 512.77,115.017 512.77,256.612Z" style="fill:rgb(13,92,143);fill-rule:nonzero;"/>
        <path d="M256.385,0.229C250.544,0.229 244.752,0.444 239.008,0.829C245.212,30.324 243.914,71.86 207.684,107.505C182.192,81.306 156.701,95.468 167.323,122.375C124.128,97.593 88.016,167.693 134.042,156.364C124.128,167.694 113.508,204.514 130.502,214.427C105.719,217.967 80.228,244.875 92.973,249.832C105.719,254.789 126.962,234.962 126.962,234.962C126.962,234.962 95.805,273.2 104.303,285.237C112.8,297.274 126.962,285.237 130.502,272.491C124.129,322.765 185.026,344.009 187.858,381.538C190.518,416.78 181.936,457.019 160.941,494.629C190.444,506.472 222.651,513 256.385,513C280.024,513 302.908,509.785 324.643,503.797C314.127,476.778 292.22,408.669 319.563,367.375C354.261,314.976 379.043,322.058 379.043,322.058C379.043,322.058 397.454,321.349 401.703,302.231C407.367,334.803 429.318,310.019 422.946,293.025C416.573,276.031 397.454,282.404 397.454,282.404C397.454,282.404 409.635,240.436 393.627,227.98C417.748,245.236 432.794,234.788 428.61,223.632C424.361,212.303 404.536,208.055 386.833,210.887C393.206,186.103 391.79,171.942 378.336,163.444C405.243,176.898 413.033,160.612 403.827,144.326C394.622,128.04 373.379,124.499 345.764,130.164C364.881,108.214 344.347,79.89 301.86,104.673C287.698,89.804 274.582,31.003 285.519,1.887C275.955,0.805 266.238,0.229 256.385,0.229Z" style="fill:rgb(197,232,242);fill-rule:nonzero;"/>
        <path d="M191.222,371.448C191.222,371.448 197.063,383.131 190.691,407.56C207.154,374.634 257.074,345.425 302.747,416.588C300.091,394.284 307.526,378.882 307.526,378.882L236.894,321.527L196.001,353.391L191.222,371.448Z" style="fill:rgb(162,217,230);fill-rule:nonzero;"/>
        <path d="M217.244,374.103C214.42,352.15 235.732,354.372 234.67,363.4C233.607,372.428 223.17,385.9 226.17,390.4C231.92,379.4 242.67,374.65 237.42,395.15C234.126,408.011 246.92,411.9 236.363,424.554C228.665,433.782 216.713,431.458 209.809,421.899C202.905,412.339 205.92,406.4 207.154,403.842C212.021,393.752 202.374,391.628 207.685,388.442C212.996,385.255 215.12,398.532 217.244,391.628C219.369,384.724 218.575,384.451 217.244,374.103Z" style="fill:rgb(162,216,229);fill-rule:nonzero;"/>
        <path d="M275.42,383.15C278.262,372.352 286.92,382.9 281.504,402.781C279.114,411.551 283.097,421.899 286.283,414.996C289.47,408.091 295.312,410.215 295.312,423.493C295.312,436.769 301.153,442.08 292.656,450.577C284.159,459.074 273.007,457.481 266.103,447.921C259.199,438.362 257.605,439.424 263.447,429.865C269.289,420.306 258.668,417.651 263.979,414.464C269.289,411.278 271.413,424.554 273.538,417.651C275.662,410.747 272.765,393.24 275.42,383.15Z" style="fill:rgb(162,216,229);fill-rule:nonzero;"/>
        <path d="M246.67,416.4C249.512,405.602 262.92,406.65 250.702,450.045C248.238,458.795 251.233,459.304 254.42,452.4C257.605,445.497 269.17,448.65 264.51,470.757C261.771,483.75 272.167,491.903 263.67,500.4C255.172,508.897 243.824,510.458 236.92,500.9C230.016,491.34 226.804,486.69 232.646,477.13C238.487,467.571 227.5,452.912 232.42,449.15C240.92,442.65 243.295,467.804 245.42,460.9C247.544,453.997 244.014,426.491 246.67,416.4Z" style="fill:rgb(162,216,229);fill-rule:nonzero;"/>
        <path d="M310.846,244.863C309.762,240.549 336.58,210.711 347.049,196.183C357.584,181.573 379.795,157.988 369.043,146.577C361.193,138.249 340.273,156.162 324.838,173.308C309.407,190.448 284.489,211.791 283.143,210.984C281.797,210.175 298.818,182.514 308.398,167.096C319.681,148.925 347.927,111.971 332.529,101.258C320.139,92.635 295.495,124.14 278.178,147.481C260.858,170.822 247.177,192.101 241.782,189.447C238.39,187.773 240.343,176.808 251.564,154.237C259.501,138.276 276.806,103.382 264.583,95.297C243.445,81.319 189.354,210.781 180.306,200.207C176.37,196.374 183.177,163.05 167.761,143.524C159.757,133.375 137.041,131.029 140.099,145.613C147.309,180.022 139.375,200.563 134.504,226.988C129.634,253.412 141.712,279.732 138.629,301.358C136.268,317.901 80.224,383.934 54.026,414.042C74.805,440.713 100.741,463.164 130.334,479.906C153.898,442.59 205.015,362.175 211.999,355.695C221.115,347.234 238.212,345.029 267.399,323.309C296.58,301.592 315.735,281.917 336.558,268.011C357.379,254.108 383.124,240.406 375.044,226.38C366.953,212.355 311.92,249.178 310.846,244.863Z" style="fill:rgb(251,181,129);fill-rule:nonzero;"/>
        <path d="M336.558,268.011C357.379,254.108 383.124,240.406 375.044,226.38C366.953,212.355 311.92,249.178 310.846,244.863C309.762,240.549 336.58,210.711 347.049,196.183C352.394,188.771 360.736,179.051 366.263,169.781C364.365,169.383 362.396,169.122 360.352,169.047C362.839,160.973 362.972,152.193 360.438,144.982C350.533,147.659 336.202,160.685 324.838,173.308C309.407,190.448 284.489,211.791 283.143,210.984C281.797,210.175 298.818,182.514 308.398,167.096C318.224,151.272 340.908,121.207 336.437,106.628C332.979,103.407 328.774,101.213 324.289,100.355C311.053,104.295 292.211,128.567 278.178,147.481C260.858,170.822 247.177,192.101 241.782,189.447C238.39,187.773 240.343,176.808 251.564,154.237C259.501,138.276 276.806,103.382 264.583,95.297C264.359,95.149 264.127,95.04 263.896,94.924C260.874,97.01 258.219,99.816 256.242,103.413C254.355,102.13 252.372,101.052 250.328,100.139C225.339,123.608 187.717,208.868 180.306,200.207C177.302,197.281 180.545,177.178 175.4,159.141C174.881,162.858 175.184,167.062 176.326,171.742C157.795,174.932 154.001,185.703 153.251,190.669C151.514,202.177 160.117,214.725 174.055,222.313C169.575,229.545 168.489,236.817 171.135,243.061C174.551,251.124 183.442,255.9 195.666,256.306C194.691,259.465 194.435,262.682 194.964,265.743C190.49,263.411 185.344,262.102 179.976,262.102C171.645,262.102 164.081,265.169 158.677,270.741C155.729,273.78 152.402,278.668 151.06,285.975C146.266,285.883 142.109,287.233 139.027,289.73C139.235,293.73 139.163,297.616 138.629,301.358C138.317,303.547 137.057,306.61 135.057,310.334C135.87,312.424 136.969,314.494 138.349,316.477C134.297,321.866 132.983,328.777 135.02,335.557C138.082,345.75 147.703,352.599 158.961,352.598C162.25,352.598 165.599,352.049 168.984,350.958C169.724,353.031 170.792,354.932 172.168,356.582C175.298,360.332 179.642,362.397 184.402,362.397C184.403,362.397 184.404,362.397 184.405,362.397C188.36,362.396 195.25,360.913 201.58,352.222C204.307,353.257 207.386,353.808 210.654,353.808C212.049,353.808 213.406,353.696 214.722,353.5C218.206,351.029 222.596,348.974 228.024,346.43C228.698,345.601 229.296,344.72 229.79,343.777C231.632,340.251 232.818,334.846 229.724,327.653C234.875,322.953 237.938,316.171 238.908,309.458C239.833,309.625 240.772,309.719 241.723,309.719C247.028,309.718 252.028,307.182 256.665,302.155C261.444,308.5 268.418,313.298 276.831,316.101C300.883,297.262 318.065,280.36 336.558,268.011Z" style="fill:rgb(246,161,105);fill-rule:nonzero;"/>
        <path d="M200.773,222.772C202.419,249.348 203.419,277.458 191.149,299.257C212.19,287.131 214.438,230.708 200.773,222.772Z" style="fill:rgb(228,144,94);fill-rule:nonzero;"/>
        <path d="M216.013,213.832C216.013,213.832 249.146,249.72 279.323,254.668C250.38,258.473 217.724,236.022 216.013,213.832Z" style="fill:rgb(246,161,105);fill-rule:nonzero;"/>
        <path d="M227.008,346.28C204.597,348.779 190.688,343.997 175.121,333.275C174.71,345.409 207.424,360.103 227.008,346.28Z" style="fill:rgb(246,161,105);fill-rule:nonzero;"/>
        <path d="M199.279,342.453C188.686,364.014 172.338,355.321 175.051,340.422C147.515,357.386 130.937,328.177 147.984,316.92C135.753,305.644 137.924,288.5 157.468,294.046C156.558,264.2 191.813,262.768 201.009,281.105C215.634,269.65 223.364,285.184 218.45,294.285C236.042,285.27 236.931,318.286 220.47,325.442C235.057,346.431 207.049,351.644 199.279,342.453Z" style="fill:white;fill-rule:nonzero;"/>
        <path d="M257.652,288.584C239.524,321.463 223.098,288.436 228.219,275.324C196.873,278.183 196.884,258.23 209.822,247.97C179.286,254.191 167.091,238.162 185.122,219.545C156.658,209.835 146.798,178.997 185.693,177.866C173.868,148.692 194.584,146.039 205.728,152.83C185.547,118.562 234.452,85.333 259.694,116C262.408,88.045 301.537,92.793 301.338,121.326C318.346,88.715 350.589,118.868 333.101,139.727C356.667,129.262 360.923,161.46 348.22,177.599C381.575,168.318 392.244,202.521 370.343,214.956C398.805,224.666 381.492,260.91 357.17,258.504C343.867,321.074 267.749,325.3 257.652,288.584Z" style="fill:white;fill-rule:nonzero;"/>
        <path d="M104.818,204.755C106.019,209.708 102.978,214.696 98.027,215.897C93.075,217.099 88.087,214.06 86.885,209.107C85.684,204.155 88.725,199.167 93.675,197.965C98.627,196.764 103.617,199.804 104.818,204.755Z" style="fill:white;fill-rule:nonzero;"/>
        <path d="M167.36,246.782C169.237,254.521 164.487,262.318 156.75,264.192C149.012,266.069 141.218,261.319 139.341,253.581C137.464,245.846 142.214,238.049 149.952,236.171C157.688,234.294 165.483,239.047 167.36,246.782Z" style="fill:white;fill-rule:nonzero;"/>
        <path d="M391.117,106.517C392.544,112.398 388.929,118.325 383.049,119.751C377.167,121.179 371.243,117.566 369.816,111.686C368.39,105.807 371.999,99.881 377.881,98.454C383.761,97.027 389.69,100.638 391.117,106.517Z" style="fill:white;fill-rule:nonzero;"/>
        <path d="M435.007,259.995C436.435,265.876 432.824,271.799 426.944,273.226C421.064,274.652 415.142,271.042 413.715,265.16C412.288,259.281 415.897,253.357 421.778,251.931C427.657,250.504 433.581,254.114 435.007,259.995Z" style="fill:white;fill-rule:nonzero;"/>
        <path d="M207.623,81.363C208.374,84.458 206.476,87.576 203.379,88.327C200.285,89.078 197.167,87.178 196.415,84.082C195.664,80.987 197.565,77.87 200.66,77.119C203.756,76.367 206.872,78.268 207.623,81.363Z" style="fill:white;fill-rule:nonzero;"/>
        <path d="M73.794,298.748C74.546,301.844 72.645,304.96 69.548,305.711C66.455,306.461 63.336,304.565 62.585,301.468C61.833,298.373 63.735,295.253 66.829,294.504C69.926,293.752 73.043,295.652 73.794,298.748Z" style="fill:white;fill-rule:nonzero;"/>
        <path d="M264.273,386.55C265.024,389.647 263.123,392.764 260.025,393.515C256.933,394.265 253.813,392.368 253.063,389.271C252.311,386.175 254.213,383.056 257.306,382.307C260.403,381.555 263.522,383.455 264.273,386.55Z" style="fill:white;fill-rule:nonzero;"/>
        <path d="M206.209,447.447C206.96,450.542 205.059,453.66 201.961,454.411C198.87,455.161 195.75,453.263 194.999,450.167C194.247,447.071 196.149,443.952 199.242,443.203C202.34,442.451 205.458,444.35 206.209,447.447Z" style="fill:white;fill-rule:nonzero;"/>
        <path d="M302.51,492.765C303.261,495.861 301.359,498.978 298.263,499.729C295.171,500.479 292.051,498.582 291.3,495.486C290.549,492.389 292.451,489.27 295.543,488.521C298.642,487.769 301.759,489.668 302.51,492.765Z" style="fill:white;fill-rule:nonzero;"/>
        <path d="M384.29,349.819C381.678,337.654 388.577,327.935 383.894,291.857C379.118,255.038 373.299,234.724 366.561,210.612C357.548,178.38 344.788,134.917 329.515,140.279C314.929,145.402 338.647,211.39 334.389,210.11C330.131,208.829 318.672,177.132 310.929,158.241C303.063,139.088 286.687,106.878 272.263,113.027C259.358,118.532 273.513,147.54 283.231,171.292C291.977,192.637 302.286,220.469 296.674,223.416C295.282,224.147 279.894,186.624 271.545,170.509C261.702,151.518 244.398,108.343 227.318,116.092C213.573,122.329 230.712,160.034 241.912,186.854C253.106,213.675 264.309,235.546 259.267,238.822C256.092,240.88 250.333,229.635 238.223,207.53C228.286,189.369 212.378,157.63 199.182,163.992C176.352,175.003 248.186,295.142 234.473,297.51C229.164,298.928 203.973,275.73 179.345,279.292C162.09,281.786 152.899,299.296 166.992,304.131C200.245,315.539 213.839,332.862 234.054,350.564C254.269,368.264 283.062,371.352 300.064,385.069C315.49,397.505 341.693,481.316 346.414,496.73C378.725,484.609 407.94,466.161 432.545,442.881C416.479,413.963 386.197,358.728 384.29,349.819Z" style="fill:rgb(251,181,129);fill-rule:nonzero;"/>
        <path d="M355.42,252.65C352.784,235.519 363.42,237.65 370.92,257.818C381.942,287.457 380.753,329.317 377.42,338.65C373.42,289.983 358.42,272.15 355.42,252.65Z" style="fill:rgb(252,197,154);fill-rule:nonzero;"/>
        <path d="M261.034,254.07C254.289,260.69 248.465,262.711 240.558,263.201C251.942,268.929 258.053,264.726 261.034,254.07Z" style="fill:rgb(246,161,105);fill-rule:nonzero;"/>
        <path d="M296.772,238.277C290.02,244.898 284.198,246.921 276.291,247.41C287.681,253.138 293.783,248.938 296.772,238.277Z" style="fill:rgb(246,161,105);fill-rule:nonzero;"/>
        <path d="M334.257,227.114C326.455,232.459 320.373,233.438 312.498,232.545C322.713,240.165 329.46,237.091 334.257,227.114Z" style="fill:rgb(246,161,105);fill-rule:nonzero;"/>
        <path d="M365.373,217.585C357.573,222.93 351.492,223.909 343.617,223.016C353.831,230.634 360.577,227.562 365.373,217.585Z" style="fill:rgb(246,161,105);fill-rule:nonzero;"/>
        <path d="M181.409,305.975C175.457,304.254 161.697,301.341 165.162,296.073C169.496,289.482 186.796,295.57 186.796,295.57L181.409,305.975Z" style="fill:rgb(253,222,200);fill-rule:nonzero;"/>
        <path d="M201.282,184.053C199.818,179.662 195.298,168.975 202.521,166.349C209.065,163.965 215.69,176.602 215.69,176.602L201.282,184.053Z" style="fill:rgb(253,222,200);fill-rule:nonzero;"/>
        <path d="M229.488,137.252C228.025,132.861 223.502,122.177 230.724,119.548C237.27,117.168 243.892,129.803 243.892,129.803L229.488,137.252Z" style="fill:rgb(253,222,200);fill-rule:nonzero;"/>
        <path d="M274.73,134.584C273.267,130.193 268.744,119.507 275.974,116.878C282.512,114.499 289.142,127.132 289.142,127.132L274.73,134.584Z" style="fill:rgb(253,222,200);fill-rule:nonzero;"/>
        <path d="M329.713,159.01C328.763,154.91 325.585,144.853 332.352,143.088C338.473,141.493 343.388,153.494 343.388,153.494L329.713,159.01Z" style="fill:rgb(253,222,200);fill-rule:nonzero;"/>
        <path d="M107.843,318.518C88.724,320.642 67.481,344.009 78.811,352.506C90.14,361.003 95.097,324.89 107.843,318.518Z" style="fill:rgb(197,232,242);fill-rule:nonzero;"/>
        <path d="M187.103,79.408C188.782,64.841 175.039,45.075 166.794,52.046C158.551,59.017 184.539,68.852 187.103,79.408Z" style="fill:rgb(197,232,242);fill-rule:nonzero;"/>
        <path d="M312.316,83.08C316.19,65.801 339.717,48.724 346.348,59.949C352.979,71.174 319.436,72.061 312.316,83.08Z" style="fill:rgb(197,232,242);fill-rule:nonzero;"/>
        <path d="M99.673,164.829C76.98,155.497 38.901,168.633 46.374,185.079C53.847,201.524 81.51,164.154 99.673,164.829Z" style="fill:rgb(197,232,242);fill-rule:nonzero;"/>
        <path d="M412.92,182.532C435.611,173.2 473.69,186.335 466.218,202.782C458.745,219.227 431.082,181.857 412.92,182.532Z" style="fill:rgb(197,232,242);fill-rule:nonzero;"/>
        <path d="M396.478,329.012C416.596,332.77 437.297,359.237 424.605,367.363C411.916,375.487 409.499,336.776 396.478,329.012Z" style="fill:rgb(197,232,242);fill-rule:nonzero;"/>
        <path d="M221.057,398.866C224.047,396.873 226.871,396.873 230.359,399.197C233.847,401.522 235.341,403.516 235.673,407.667C236.074,412.678 235.359,414.332 230.524,418.628C227.535,421.287 220.559,421.12 216.906,416.802C214.215,413.622 212.352,408.788 214.249,405.509C216.075,402.353 218.808,400.366 221.057,398.866Z" style="fill:rgb(221,86,69);fill-rule:nonzero;"/>
        <path d="M231.229,402.502C231.949,403.625 231.78,404.523 230.521,405.436C229.264,406.347 228.275,406.653 226.379,406.407C224.098,406.107 223.394,405.74 221.745,403.839C220.724,402.659 221.218,400.455 223.385,399.662C224.982,399.076 227.274,398.892 228.64,399.773C229.952,400.623 230.685,401.66 231.229,402.502Z" style="fill:rgb(242,123,86);fill-rule:nonzero;"/>
        <path d="M234.238,406.103C233.672,407.718 232.423,409.118 230.005,411.267C227.368,413.613 221.213,413.464 217.99,409.657C217.089,408.59 216.294,407.314 215.746,405.986C215.714,406.038 215.677,406.084 215.646,406.139C213.971,409.031 215.617,413.297 217.99,416.103C221.213,419.914 227.368,420.059 230.005,417.714C234.271,413.923 234.901,412.464 234.549,408.043C234.491,407.324 234.378,406.694 234.238,406.103Z" style="fill:rgb(183,57,54);fill-rule:nonzero;"/>
        <path d="M230.298,386.975C231.079,386.456 231.815,386.456 232.725,387.062C233.636,387.668 234.026,388.189 234.112,389.273C234.217,390.58 234.031,391.012 232.769,392.133C231.989,392.826 230.168,392.784 229.215,391.656C228.513,390.827 228.026,389.565 228.521,388.709C228.999,387.884 229.711,387.367 230.298,386.975Z" style="fill:rgb(221,86,69);fill-rule:nonzero;"/>
        <path d="M232.952,387.924C233.141,388.217 233.097,388.452 232.768,388.69C232.44,388.928 232.182,389.008 231.687,388.944C231.091,388.865 230.908,388.769 230.478,388.274C230.211,387.965 230.34,387.39 230.906,387.183C231.323,387.03 231.92,386.982 232.277,387.212C232.619,387.433 232.811,387.705 232.952,387.924Z" style="fill:rgb(242,123,86);fill-rule:nonzero;"/>
        <path d="M233.737,388.864C233.59,389.285 233.265,389.651 232.634,390.211C231.945,390.824 230.338,390.786 229.497,389.792C229.263,389.513 229.055,389.18 228.912,388.833C228.904,388.847 228.895,388.859 228.886,388.874C228.449,389.628 228.878,390.741 229.497,391.473C230.338,392.468 231.945,392.506 232.634,391.894C233.747,390.905 233.911,390.525 233.819,389.371C233.804,389.182 233.775,389.018 233.737,388.864Z" style="fill:rgb(183,57,54);fill-rule:nonzero;"/>
        <path d="M225.453,363.194C226.734,362.34 227.943,362.34 229.437,363.336C230.932,364.332 231.572,365.185 231.713,366.964C231.885,369.108 231.579,369.819 229.509,371.659C228.228,372.795 225.239,372.726 223.675,370.875C222.523,369.514 221.725,367.444 222.537,366.041C223.319,364.687 224.489,363.837 225.453,363.194Z" style="fill:rgb(221,86,69);fill-rule:nonzero;"/>
        <path d="M229.81,364.75C230.119,365.233 230.046,365.618 229.507,366.007C228.968,366.399 228.545,366.53 227.733,366.424C226.756,366.295 226.454,366.139 225.748,365.325C225.311,364.82 225.522,363.875 226.45,363.536C227.134,363.285 228.116,363.206 228.702,363.583C229.262,363.946 229.577,364.39 229.81,364.75Z" style="fill:rgb(242,123,86);fill-rule:nonzero;"/>
        <path d="M231.098,366.293C230.856,366.984 230.321,367.585 229.286,368.504C228.156,369.511 225.52,369.448 224.139,367.817C223.754,367.359 223.414,366.813 223.178,366.244C223.165,366.266 223.149,366.285 223.136,366.309C222.418,367.548 223.124,369.375 224.139,370.576C225.52,372.208 228.156,372.272 229.286,371.266C231.112,369.644 231.382,369.018 231.231,367.126C231.207,366.816 231.159,366.547 231.098,366.293Z" style="fill:rgb(183,57,54);fill-rule:nonzero;"/>
        <path d="M213.841,375.564C215.156,374.688 216.399,374.688 217.932,375.71C219.467,376.733 220.125,377.61 220.269,379.436C220.446,381.639 220.132,382.368 218.005,384.257C216.69,385.425 213.622,385.354 212.016,383.454C210.832,382.055 210.012,379.929 210.847,378.487C211.65,377.097 212.851,376.225 213.841,375.564Z" style="fill:rgb(221,86,69);fill-rule:nonzero;"/>
        <path d="M218.314,377.164C218.632,377.659 218.558,378.053 218.003,378.454C217.452,378.855 217.016,378.99 216.182,378.882C215.179,378.75 214.869,378.588 214.143,377.752C213.695,377.233 213.912,376.263 214.865,375.916C215.568,375.657 216.575,375.577 217.177,375.964C217.752,376.337 218.076,376.793 218.314,377.164Z" style="fill:rgb(242,123,86);fill-rule:nonzero;"/>
        <path d="M219.638,378.748C219.39,379.457 218.84,380.074 217.777,381.018C216.617,382.051 213.91,381.987 212.492,380.312C212.095,379.841 211.746,379.281 211.505,378.697C211.491,378.719 211.475,378.738 211.461,378.763C210.724,380.036 211.448,381.911 212.492,383.145C213.91,384.823 216.617,384.887 217.777,383.854C219.653,382.188 219.93,381.546 219.775,379.602C219.75,379.284 219.7,379.008 219.638,378.748Z" style="fill:rgb(183,57,54);fill-rule:nonzero;"/>
        <path d="M221.971,424.277C221.844,424.277 221.721,424.212 221.651,424.095C219.663,420.782 222.167,417.951 222.192,417.921C222.332,417.772 222.565,417.758 222.72,417.895C222.873,418.035 222.885,418.27 222.747,418.423C222.659,418.523 220.594,420.878 222.292,423.71C222.397,423.887 222.34,424.117 222.164,424.222C222.104,424.259 222.038,424.277 221.971,424.277Z" style="fill:rgb(143,33,29);fill-rule:nonzero;"/>
        <path d="M219.277,402.48C219.184,402.48 219.089,402.445 219.016,402.373C216.584,399.984 213.927,399.233 213.901,399.226C213.701,399.171 213.585,398.965 213.64,398.767C213.694,398.567 213.893,398.446 214.097,398.505C214.213,398.536 216.962,399.307 219.54,401.839C219.686,401.984 219.689,402.22 219.544,402.368C219.471,402.444 219.374,402.48 219.277,402.48Z" style="fill:rgb(143,33,29);fill-rule:nonzero;"/>
        <path d="M238.436,411.266C238.348,411.266 238.261,411.235 238.19,411.174C238.09,411.086 235.702,409.055 232.897,410.793C232.722,410.901 232.492,410.85 232.383,410.673C232.274,410.498 232.328,410.267 232.504,410.159C235.788,408.121 238.653,410.585 238.683,410.613C238.838,410.748 238.852,410.983 238.717,411.14C238.644,411.223 238.539,411.266 238.436,411.266Z" style="fill:rgb(143,33,29);fill-rule:nonzero;"/>
        <path d="M211.749,412.411C210.577,412.411 209.646,411.364 209.608,411.318C209.472,411.165 209.488,410.929 209.642,410.793C209.797,410.658 210.033,410.67 210.169,410.826C210.177,410.834 210.918,411.664 211.749,411.664C211.752,411.664 211.755,411.664 211.758,411.664C212.154,411.661 212.508,411.469 212.843,411.079C214.507,409.139 217.522,410.55 217.649,410.612C217.834,410.7 217.913,410.923 217.824,411.109C217.736,411.294 217.513,411.375 217.326,411.286C217.299,411.273 214.7,410.059 213.412,411.565C212.933,412.123 212.377,412.409 211.76,412.411C211.756,412.411 211.753,412.411 211.749,412.411Z" style="fill:rgb(143,33,29);fill-rule:nonzero;"/>
        <path d="M229.321,402.478C229.303,402.478 229.286,402.477 229.268,402.474C229.063,402.445 228.921,402.255 228.951,402.051C229.106,400.962 230.191,400.868 231.242,400.778C232.456,400.672 233.83,400.554 234.747,399.272C234.866,399.102 235.104,399.065 235.268,399.185C235.436,399.305 235.475,399.539 235.354,399.707C234.238,401.269 232.543,401.416 231.305,401.522C230.209,401.618 229.755,401.701 229.69,402.156C229.664,402.344 229.503,402.478 229.321,402.478Z" style="fill:rgb(143,33,29);fill-rule:nonzero;"/>
        <path d="M226.456,415.184C226.405,415.184 226.354,415.173 226.306,415.153C226.116,415.069 226.031,414.849 226.114,414.66C226.91,412.843 227.067,411.386 226.576,410.33C226.116,409.338 225.237,409.067 225.229,409.064C225.031,409.006 224.918,408.797 224.977,408.6C225.034,408.403 225.245,408.289 225.44,408.348C225.49,408.363 226.653,408.72 227.255,410.015C227.839,411.275 227.685,412.938 226.798,414.959C226.736,415.1 226.599,415.184 226.456,415.184Z" style="fill:rgb(143,33,29);fill-rule:nonzero;"/>
        <path d="M234.042,420.169C233.17,420.169 232.446,419.88 231.889,419.312C230.565,417.964 230.686,415.516 230.691,415.412C230.704,415.206 230.889,415.043 231.085,415.059C231.292,415.07 231.449,415.248 231.437,415.453C231.437,415.475 231.331,417.68 232.424,418.791C232.866,419.24 233.414,419.446 234.165,419.419C234.368,419.409 234.544,419.573 234.552,419.778C234.56,419.986 234.398,420.159 234.192,420.166C234.142,420.167 234.091,420.169 234.042,420.169Z" style="fill:rgb(143,33,29);fill-rule:nonzero;"/>
        <path d="M255.783,469.134C259.897,470.396 262.039,473.014 262.527,478.01C263.016,483.006 262.3,485.904 258.703,489.359C254.361,493.529 252.286,494.12 244.636,492.894C239.905,492.138 234.771,485.544 236.006,478.884C236.914,473.977 239.984,468.583 244.461,467.857C248.772,467.159 252.687,468.185 255.783,469.134Z" style="fill:rgb(247,185,33);fill-rule:nonzero;"/>
        <path d="M260.122,481.323C259.627,482.84 258.667,483.366 256.866,482.89C255.068,482.416 254.035,481.73 252.826,479.786C251.375,477.444 251.182,476.512 251.692,473.542C252.014,471.702 254.432,470.488 256.81,471.895C258.564,472.931 260.472,474.917 260.691,476.852C260.897,478.713 260.492,480.179 260.122,481.323Z" style="fill:rgb(255,208,108);fill-rule:nonzero;"/>
        <path d="M259.066,486.842C257.14,487.542 254.894,487.445 251.069,486.833C246.893,486.164 242.365,480.346 243.452,474.471C243.757,472.827 244.338,471.123 245.154,469.606C245.083,469.617 245.011,469.618 244.937,469.63C240.986,470.27 238.277,475.03 237.476,479.359C236.386,485.236 240.917,491.051 245.09,491.721C251.839,492.801 253.67,492.28 257.501,488.601C258.125,488 258.624,487.419 259.066,486.842Z" style="fill:rgb(230,146,33);fill-rule:nonzero;"/>
        <path d="M261.372,453.289C262.822,453.732 263.576,454.656 263.748,456.417C263.92,458.177 263.669,459.198 262.4,460.416C260.871,461.885 260.14,462.093 257.443,461.662C255.776,461.395 253.967,459.072 254.401,456.725C254.722,454.995 255.804,453.094 257.381,452.838C258.902,452.592 260.28,452.955 261.372,453.289Z" style="fill:rgb(247,185,33);fill-rule:nonzero;"/>
        <path d="M262.901,457.583C262.728,458.119 262.389,458.303 261.754,458.136C261.12,457.968 260.756,457.727 260.329,457.042C259.819,456.216 259.751,455.888 259.931,454.841C260.043,454.193 260.896,453.765 261.733,454.261C262.352,454.626 263.024,455.327 263.102,456.008C263.175,456.664 263.031,457.18 262.901,457.583Z" style="fill:rgb(255,208,108);fill-rule:nonzero;"/>
        <path d="M262.528,459.529C261.85,459.775 261.058,459.741 259.711,459.525C258.239,459.29 256.643,457.239 257.026,455.168C257.135,454.59 257.338,453.99 257.626,453.455C257.601,453.458 257.575,453.458 257.549,453.462C256.157,453.689 255.202,455.366 254.92,456.892C254.535,458.962 256.133,461.011 257.604,461.249C259.983,461.628 260.627,461.445 261.978,460.149C262.197,459.937 262.373,459.733 262.528,459.529Z" style="fill:rgb(230,146,33);fill-rule:nonzero;"/>
        <path d="M242.269,441.638C243.464,442.004 244.086,442.766 244.228,444.219C244.37,445.671 244.163,446.513 243.116,447.518C241.854,448.731 241.251,448.903 239.027,448.547C237.651,448.326 236.16,446.411 236.518,444.474C236.782,443.046 237.675,441.478 238.976,441.266C240.23,441.064 241.368,441.363 242.269,441.638Z" style="fill:rgb(247,185,33);fill-rule:nonzero;"/>
        <path d="M243.53,445.182C243.386,445.623 243.106,445.776 242.582,445.637C242.06,445.5 241.761,445.3 241.408,444.735C240.987,444.053 240.93,443.784 241.079,442.918C241.171,442.384 241.875,442.032 242.566,442.441C243.076,442.743 243.631,443.32 243.695,443.882C243.755,444.423 243.637,444.849 243.53,445.182Z" style="fill:rgb(255,208,108);fill-rule:nonzero;"/>
        <path d="M243.222,446.787C242.662,446.99 242.01,446.962 240.897,446.784C239.683,446.589 238.367,444.898 238.683,443.19C238.772,442.712 238.939,442.216 239.178,441.775C239.157,441.779 239.136,441.779 239.115,441.782C237.965,441.968 237.178,443.352 236.946,444.611C236.628,446.319 237.946,448.009 239.159,448.205C241.122,448.519 241.654,448.368 242.768,447.298C242.949,447.124 243.093,446.955 243.222,446.787Z" style="fill:rgb(230,146,33);fill-rule:nonzero;"/>
        <path d="M252.094,419.864C253.289,420.23 253.911,420.993 254.053,422.446C254.195,423.898 253.988,424.739 252.941,425.744C251.679,426.957 251.076,427.128 248.852,426.773C247.476,426.552 245.984,424.636 246.342,422.7C246.606,421.273 247.5,419.705 248.8,419.493C250.056,419.291 251.192,419.589 252.094,419.864Z" style="fill:rgb(247,185,33);fill-rule:nonzero;"/>
        <path d="M253.355,423.409C253.211,423.849 252.931,424.001 252.407,423.864C251.884,423.726 251.585,423.527 251.233,422.961C250.812,422.28 250.754,422.01 250.904,421.145C250.996,420.611 251.7,420.258 252.392,420.667C252.901,420.968 253.456,421.546 253.52,422.109C253.58,422.649 253.462,423.076 253.355,423.409Z" style="fill:rgb(255,208,108);fill-rule:nonzero;"/>
        <path d="M253.047,425.013C252.487,425.216 251.834,425.188 250.723,425.009C249.508,424.816 248.191,423.125 248.508,421.416C248.597,420.939 248.764,420.443 249.003,420C248.982,420.005 248.961,420.005 248.939,420.008C247.79,420.195 247.003,421.579 246.771,422.836C246.453,424.545 247.771,426.236 248.984,426.431C250.946,426.745 251.479,426.593 252.593,425.524C252.774,425.35 252.918,425.181 253.047,425.013Z" style="fill:rgb(230,146,33);fill-rule:nonzero;"/>
        <path d="M232.916,489.247C232.819,489.128 232.786,488.966 232.84,488.812C234.405,484.457 238.93,484.63 238.976,484.632C239.22,484.648 239.409,484.856 239.4,485.102C239.386,485.348 239.178,485.54 238.931,485.528C238.772,485.522 235.021,485.393 233.684,489.114C233.6,489.346 233.343,489.467 233.111,489.383C233.032,489.355 232.966,489.306 232.916,489.247Z" style="fill:rgb(186,88,28);fill-rule:nonzero;"/>
        <path d="M251.083,470.224C251.012,470.136 250.974,470.022 250.984,469.901C251.356,465.834 250.037,462.803 250.024,462.773C249.923,462.545 250.024,462.281 250.25,462.183C250.477,462.081 250.74,462.173 250.841,462.408C250.9,462.539 252.269,465.672 251.875,469.982C251.853,470.227 251.635,470.409 251.389,470.387C251.264,470.376 251.156,470.314 251.083,470.224Z" style="fill:rgb(186,88,28);fill-rule:nonzero;"/>
        <path d="M257.461,494.65C257.394,494.568 257.355,494.462 257.359,494.351C257.366,494.192 257.437,490.437 253.7,489.155C253.467,489.074 253.339,488.821 253.422,488.585C253.502,488.352 253.756,488.228 253.991,488.309C258.371,489.809 258.256,494.334 258.254,494.382C258.247,494.628 258.039,494.821 257.792,494.813C257.657,494.807 257.538,494.744 257.461,494.65Z" style="fill:rgb(186,88,28);fill-rule:nonzero;"/>
        <path d="M236.168,470.773C235.279,469.685 235.544,468.03 235.557,467.959C235.597,467.716 235.828,467.552 236.07,467.593C236.314,467.633 236.48,467.863 236.439,468.105C236.438,468.12 236.231,469.436 236.861,470.206C236.863,470.208 236.866,470.212 236.868,470.214C237.17,470.58 237.617,470.763 238.232,470.777C241.293,470.85 242.269,474.714 242.307,474.878C242.367,475.118 242.22,475.36 241.98,475.417C241.742,475.477 241.498,475.331 241.439,475.091C241.431,475.056 240.585,471.725 238.211,471.672C237.332,471.653 236.646,471.353 236.176,470.784C236.173,470.78 236.171,470.776 236.168,470.773Z" style="fill:rgb(186,88,28);fill-rule:nonzero;"/>
        <path d="M258.699,479.535C258.686,479.518 258.673,479.501 258.661,479.484C258.535,479.271 258.601,478.997 258.814,478.869C259.941,478.186 260.853,479.122 261.73,480.027C262.749,481.073 263.9,482.257 265.785,482.135C266.033,482.119 266.248,482.309 266.26,482.551C266.277,482.799 266.09,483.011 265.844,483.026C263.548,483.177 262.127,481.717 261.09,480.651C260.17,479.706 259.749,479.348 259.276,479.633C259.084,479.75 258.838,479.704 258.699,479.535Z" style="fill:rgb(186,88,28);fill-rule:nonzero;"/>
        <path d="M244.746,486.51C244.708,486.463 244.678,486.409 244.662,486.348C244.595,486.109 244.734,485.862 244.972,485.795C247.262,485.159 248.731,484.198 249.338,482.942C249.909,481.764 249.493,480.743 249.489,480.734C249.394,480.506 249.501,480.244 249.729,480.148C249.955,480.051 250.222,480.161 250.315,480.387C250.339,480.445 250.89,481.792 250.144,483.333C249.418,484.829 247.76,485.948 245.214,486.659C245.036,486.708 244.854,486.644 244.746,486.51Z" style="fill:rgb(186,88,28);fill-rule:nonzero;"/>
        <path d="M245.875,497.324C245.215,496.515 244.933,495.625 245.037,494.678C245.283,492.429 247.645,490.684 247.746,490.612C247.946,490.465 248.237,490.516 248.37,490.708C248.517,490.908 248.473,491.188 248.272,491.333C248.252,491.35 246.127,492.924 245.926,494.779C245.845,495.529 246.069,496.193 246.664,496.87C246.828,497.049 246.81,497.337 246.623,497.5C246.438,497.665 246.155,497.646 245.992,497.46C245.951,497.415 245.913,497.369 245.875,497.324Z" style="fill:rgb(186,88,28);fill-rule:nonzero;"/>
        <path d="M274.505,422.978C278.085,420.591 281.468,420.591 285.645,423.375C289.821,426.16 291.611,428.547 292.009,433.519C292.489,439.521 291.633,441.5 285.843,446.648C282.262,449.832 273.908,449.632 269.533,444.46C266.31,440.652 264.077,434.861 266.349,430.934C268.537,427.155 271.81,424.774 274.505,422.978Z" style="fill:rgb(172,205,68);fill-rule:nonzero;"/>
        <path d="M286.687,427.334C287.549,428.677 287.347,429.754 285.839,430.847C284.333,431.939 283.148,432.303 280.878,432.01C278.146,431.65 277.303,431.21 275.327,428.935C274.105,427.521 274.696,424.881 277.292,423.931C279.204,423.229 281.95,423.009 283.586,424.064C285.157,425.083 286.035,426.324 286.687,427.334Z" style="fill:rgb(213,224,137);fill-rule:nonzero;"/>
        <path d="M290.29,431.646C289.613,433.58 288.116,435.256 285.222,437.832C282.061,440.64 274.69,440.462 270.83,435.902C269.751,434.625 268.799,433.097 268.142,431.505C268.104,431.567 268.06,431.624 268.022,431.689C266.017,435.153 267.987,440.262 270.83,443.623C274.69,448.187 282.061,448.36 285.222,445.553C290.33,441.012 291.085,439.265 290.662,433.97C290.592,433.108 290.458,432.353 290.29,431.646Z" style="fill:rgb(123,174,56);fill-rule:nonzero;"/>
        <path d="M270.094,409.635C271.36,408.792 272.556,408.792 274.032,409.777C275.509,410.761 276.142,411.604 276.281,413.363C276.451,415.484 276.148,416.184 274.102,418.002C272.837,419.127 269.884,419.057 268.337,417.229C267.198,415.883 266.409,413.836 267.212,412.449C267.985,411.113 269.142,410.272 270.094,409.635Z" style="fill:rgb(172,205,68);fill-rule:nonzero;"/>
        <path d="M274.4,411.176C274.706,411.651 274.634,412.032 274.101,412.417C273.568,412.803 273.149,412.932 272.347,412.829C271.381,412.702 271.084,412.546 270.386,411.742C269.953,411.243 270.162,410.309 271.079,409.973C271.756,409.725 272.727,409.647 273.305,410.019C273.859,410.38 274.171,410.819 274.4,411.176Z" style="fill:rgb(213,224,137);fill-rule:nonzero;"/>
        <path d="M275.675,412.7C275.435,413.383 274.906,413.976 273.882,414.886C272.765,415.878 270.16,415.817 268.796,414.205C268.415,413.752 268.078,413.213 267.846,412.65C267.833,412.671 267.816,412.693 267.804,412.715C267.095,413.939 267.791,415.745 268.796,416.933C270.16,418.546 272.765,418.608 273.882,417.615C275.688,416.01 275.955,415.392 275.805,413.521C275.781,413.216 275.733,412.95 275.675,412.7Z" style="fill:rgb(123,174,56);fill-rule:nonzero;"/>
        <path d="M289.079,416.122C289.896,415.578 290.667,415.578 291.62,416.212C292.572,416.847 292.979,417.392 293.07,418.526C293.18,419.894 292.985,420.346 291.665,421.519C290.849,422.245 288.943,422.2 287.946,421.021C287.211,420.152 286.701,418.832 287.22,417.937C287.719,417.075 288.465,416.533 289.079,416.122Z" style="fill:rgb(172,205,68);fill-rule:nonzero;"/>
        <path d="M291.857,417.116C292.054,417.422 292.008,417.667 291.664,417.916C291.32,418.165 291.051,418.248 290.532,418.181C289.909,418.099 289.718,418 289.268,417.48C288.988,417.159 289.123,416.556 289.715,416.339C290.151,416.179 290.777,416.128 291.15,416.37C291.508,416.602 291.708,416.885 291.857,417.116Z" style="fill:rgb(213,224,137);fill-rule:nonzero;"/>
        <path d="M292.679,418.098C292.524,418.54 292.184,418.922 291.522,419.509C290.802,420.149 289.122,420.109 288.242,419.07C287.996,418.778 287.778,418.429 287.629,418.067C287.62,418.08 287.61,418.093 287.602,418.109C287.145,418.898 287.594,420.063 288.242,420.829C289.122,421.87 290.802,421.91 291.522,421.269C292.688,420.234 292.86,419.834 292.763,418.628C292.748,418.431 292.718,418.259 292.679,418.098Z" style="fill:rgb(123,174,56);fill-rule:nonzero;"/>
        <path d="M277.396,384.789C278.213,384.245 278.983,384.245 279.937,384.879C280.889,385.514 281.296,386.059 281.387,387.193C281.496,388.561 281.302,389.013 279.981,390.186C279.165,390.912 277.26,390.867 276.263,389.687C275.527,388.819 275.018,387.499 275.536,386.604C276.035,385.742 276.781,385.199 277.396,384.789Z" style="fill:rgb(172,205,68);fill-rule:nonzero;"/>
        <path d="M280.174,385.782C280.37,386.089 280.324,386.333 279.98,386.583C279.637,386.832 279.367,386.915 278.849,386.848C278.227,386.766 278.034,386.666 277.584,386.147C277.305,385.826 277.439,385.223 278.031,385.006C278.468,384.846 279.095,384.795 279.467,385.037C279.824,385.269 280.024,385.552 280.174,385.782Z" style="fill:rgb(213,224,137);fill-rule:nonzero;"/>
        <path d="M280.995,386.765C280.841,387.207 280.5,387.589 279.839,388.176C279.118,388.816 277.438,388.776 276.559,387.736C276.313,387.445 276.095,387.096 275.945,386.733C275.937,386.747 275.927,386.76 275.918,386.776C275.461,387.565 275.91,388.73 276.559,389.496C277.438,390.537 279.118,390.577 279.839,389.936C281.004,388.901 281.177,388.501 281.079,387.295C281.064,387.098 281.034,386.926 280.995,386.765Z" style="fill:rgb(123,174,56);fill-rule:nonzero;"/>
        <path d="M275.599,453.412C275.447,453.412 275.3,453.334 275.215,453.195C272.833,449.226 275.833,445.834 275.863,445.8C276.03,445.621 276.311,445.605 276.495,445.769C276.678,445.935 276.693,446.217 276.528,446.401C276.422,446.52 273.948,449.342 275.982,452.733C276.109,452.946 276.041,453.221 275.829,453.347C275.758,453.391 275.678,453.412 275.599,453.412Z" style="fill:rgb(39,110,39);fill-rule:nonzero;"/>
        <path d="M272.373,427.306C272.26,427.306 272.146,427.264 272.06,427.178C269.147,424.317 265.965,423.418 265.934,423.41C265.694,423.344 265.554,423.098 265.62,422.861C265.685,422.621 265.923,422.476 266.168,422.546C266.307,422.583 269.6,423.506 272.687,426.54C272.862,426.713 272.865,426.996 272.692,427.172C272.605,427.262 272.488,427.306 272.373,427.306Z" style="fill:rgb(39,110,39);fill-rule:nonzero;"/>
        <path d="M295.319,437.831C295.213,437.831 295.108,437.792 295.023,437.719C294.904,437.615 292.043,435.181 288.685,437.264C288.474,437.392 288.198,437.332 288.068,437.119C287.938,436.909 288.002,436.633 288.214,436.503C292.146,434.062 295.578,437.015 295.613,437.047C295.8,437.208 295.816,437.491 295.655,437.677C295.565,437.777 295.441,437.831 295.319,437.831Z" style="fill:rgb(39,110,39);fill-rule:nonzero;"/>
        <path d="M263.356,439.201C261.95,439.201 260.838,437.947 260.79,437.892C260.629,437.708 260.647,437.425 260.832,437.263C261.019,437.1 261.302,437.117 261.463,437.302C261.474,437.313 262.361,438.305 263.356,438.305C263.359,438.305 263.363,438.305 263.366,438.305C263.841,438.302 264.266,438.073 264.666,437.605C266.66,435.282 270.27,436.972 270.421,437.046C270.645,437.152 270.738,437.418 270.631,437.641C270.526,437.864 270.259,437.958 270.036,437.853C270.004,437.837 266.89,436.383 265.347,438.188C264.774,438.856 264.108,439.197 263.369,439.201C263.364,439.201 263.361,439.201 263.356,439.201Z" style="fill:rgb(39,110,39);fill-rule:nonzero;"/>
        <path d="M284.4,427.304C284.38,427.304 284.359,427.303 284.339,427.3C284.094,427.265 283.923,427.039 283.958,426.793C284.144,425.489 285.444,425.375 286.701,425.268C288.155,425.142 289.802,425 290.9,423.464C291.043,423.262 291.327,423.216 291.522,423.361C291.725,423.503 291.771,423.783 291.626,423.984C290.29,425.856 288.262,426.032 286.778,426.16C285.465,426.274 284.922,426.374 284.844,426.919C284.812,427.143 284.62,427.304 284.4,427.304Z" style="fill:rgb(39,110,39);fill-rule:nonzero;"/>
        <path d="M280.97,442.522C280.909,442.522 280.849,442.509 280.79,442.484C280.563,442.383 280.46,442.121 280.559,441.894C281.516,439.718 281.702,437.973 281.113,436.708C280.563,435.52 279.51,435.196 279.5,435.193C279.264,435.123 279.127,434.873 279.198,434.636C279.267,434.4 279.52,434.263 279.754,434.334C279.813,434.352 281.206,434.78 281.926,436.332C282.625,437.839 282.442,439.832 281.38,442.253C281.306,442.421 281.142,442.522 280.97,442.522Z" style="fill:rgb(39,110,39);fill-rule:nonzero;"/>
        <path d="M290.055,448.492C289.012,448.492 288.145,448.147 287.478,447.466C285.892,445.852 286.035,442.918 286.043,442.795C286.057,442.547 286.28,442.355 286.514,442.374C286.762,442.386 286.95,442.597 286.936,442.844C286.935,442.872 286.81,445.512 288.118,446.841C288.647,447.379 289.303,447.625 290.203,447.593C290.446,447.582 290.657,447.777 290.666,448.024C290.676,448.272 290.482,448.48 290.235,448.489C290.174,448.491 290.114,448.492 290.055,448.492Z" style="fill:rgb(39,110,39);fill-rule:nonzero;"/>
    </g>
</svg>
